<?xml version="1.0" encoding="utf-8"?>
<!-- Generator: Adobe Illustrator 15.0.0, SVG Export Plug-In  -->
<!DOCTYPE svg PUBLIC "-//W3C//DTD SVG 1.1//EN" "http://www.w3.org/Graphics/SVG/1.1/DTD/svg11.dtd" [
	<!ENTITY ns_flows "http://ns.adobe.com/Flows/1.0/">
]>
<svg version="1.1"
	 xmlns="http://www.w3.org/2000/svg" xmlns:xlink="http://www.w3.org/1999/xlink" xmlns:a="http://ns.adobe.com/AdobeSVGViewerExtensions/3.0/"
	 preserveAspectRatio="none"
	 x="0px" y="0px" width="467px" height="134px" viewBox="0 0 467 134" enable-background="new 0 0 467 134" xml:space="preserve">
<defs>
</defs>
<g>
	<defs>
		<rect id="SVGID_3_" width="467" height="134"/>
	</defs>
	<clipPath id="SVGID_4_">
		<use xlink:href="#SVGID_3_"  overflow="visible"/>
	</clipPath>
	<rect clip-path="url(#SVGID_4_)" fill="#323344" width="467" height="134"/>
</g>
<g>
	<defs>
		<rect id="SVGID_1_" width="467" height="134"/>
	</defs>
	<clipPath id="SVGID_5_">
		<use xlink:href="#SVGID_1_"  overflow="visible"/>
	</clipPath>
	<g clip-path="url(#SVGID_5_)">
		<defs>
			<rect id="SVGID_2_" width="467" height="134"/>
		</defs>
		<clipPath id="SVGID_6_">
			<use xlink:href="#SVGID_2_"  overflow="visible"/>
		</clipPath>
		<path clip-path="url(#SVGID_6_)" fill="#FFFFFF" d="M252.477,44.796c-12.319,0-22.355,9.988-22.355,22.256
			c0,12.282,10.036,22.258,22.355,22.258c12.334,0,22.351-9.976,22.351-22.258C274.827,54.784,264.811,44.796,252.477,44.796
			 M252.477,82.486c-8.539,0-14.807-6.925-14.807-15.435c0-8.502,6.268-15.421,14.807-15.421c8.545,0,14.816,6.918,14.816,15.421
			C267.293,75.562,261.021,82.486,252.477,82.486 M356.852,80.34c-7.652,0.167-13.651-5.71-13.812-13.094
			c-0.168-7.377,5.566-13.503,13.219-13.671c3.469-0.083,7.855,1.245,10.36,3.279l4.639-7.28c-4.074-3.214-9.467-5-15.194-4.876
			c-12.717,0.278-23.194,10.491-22.93,22.772c0.272,12.275,11.189,22.028,23.914,21.742c5.657-0.117,10.624-1.916,14.678-5.466
			l-4.528-6.953C364.798,78.889,360.277,80.266,356.852,80.34 M393.1,77.832v-5.917h17.657v-9.907H393.1v-5.917h25.086v-9.898
			h-35.718v41.547h36.066v-9.907H393.1z M191.691,87.906h6.516v-17.7h19.714v-5.808h-19.714V51.992h27.143v-5.8h-33.658V87.906z
			 M107.65,44.712c-12.334,0-22.379,9.997-22.379,22.283c0,12.29,10.045,22.287,22.379,22.287c12.348,0,22.387-9.997,22.387-22.287
			C130.037,54.709,119.998,44.712,107.65,44.712 M107.65,85.53c-10.255,0-18.264-8.315-18.264-18.535
			c0-10.209,8.009-18.533,18.264-18.533c10.27,0,18.271,8.323,18.271,18.533C125.921,77.215,117.92,85.53,107.65,85.53
			 M48.467,87.906h3.082V68.671H73.16v-2.73H51.549V48.756h29.035v-2.739H48.467V87.906z M178.667,58.562
			c0-6.147-5.121-12.545-14.253-12.545h-22.106v41.889h5.489V70.935h12.529l9.676,16.972h6.69l-10.164-17.089
			C173.985,69.837,178.667,64.203,178.667,58.562 M170.687,63.717c-1.64,1.598-4.046,2.439-6.955,2.439h-15.935V50.798h15.935
			c6.292,0,9.104,3.986,9.104,7.764C172.835,60.529,172.074,62.356,170.687,63.717 M324.428,59.244
			c0-6.571-5.344-13.227-14.901-13.227h-23.99v41.889h8.573V72.471h10.785l8.77,15.436h9.885l-9.48-15.997
			C320.661,70.17,324.428,64.682,324.428,59.244 M308.843,64.62h-14.733V53.874h14.733c4.918,0,6.67,2.896,6.67,5.37
			C315.513,61.724,313.761,64.62,308.843,64.62"/>
	</g>
</g>
</svg>
